<svg width="291" height="65" viewBox="0 0 291 65" fill="none" xmlns="http://www.w3.org/2000/svg">
<path d="M62.4064 42.9226L58.9832 40.5527L47.6604 54.2454L37.3909 42.1327L28.1746 50.2956L27.9113 50.5589L27.5163 50.9539L27.1213 51.3489L12.6387 64.2516L36.6009 48.4524L47.9237 61.6184L62.4064 42.9226Z" fill="#F9B318"/>
<path d="M5.79306 21.8555L0 29.2285L15.7993 42.1312L21.329 35.0215L18.6958 34.7582L11.8495 31.8617L7.63631 26.5952L5.79306 21.8555Z" fill="#004E9B"/>
<path d="M83.9996 12.6387L68.4637 22.1182L72.9401 22.9082L67.6737 29.7545L66.3571 31.3345L65.5672 32.3878L63.1973 35.2843L66.3571 38.1808L76.89 25.2781L78.9965 28.7013L83.9996 12.6387Z" fill="#F9B318"/>
<path d="M75.8367 4.73978L74.5201 4.21314L67.6738 11.5861L58.7209 11.3228V13.1661L61.8807 13.4294L62.144 14.4827L56.8776 19.2224L53.4544 21.0657L46.8714 14.746L43.9749 12.9027L44.5015 11.3228L46.6081 11.0595L46.8714 8.42628L47.9247 8.16295L45.8181 2.36989L46.0815 0L39.7617 1.84325L38.1818 3.94982V6.58303L40.5517 10.2695L39.2351 12.1128H34.232L27.649 14.4827L21.0659 18.9591L15.2729 23.9622L13.1663 22.9089L11.3231 25.0155L7.10993 21.5923L8.42653 25.8055L12.3763 31.0719L18.1694 33.4418L21.5926 33.7051L17.6428 30.2819L19.2227 28.1754L17.9061 26.3321L18.1694 25.2788L21.0659 22.6456L25.8057 19.7491L30.2822 18.1692L33.7054 17.9058L26.859 32.3885L23.9625 37.1283L8.95317 53.7175V54.5075L6.05664 56.3507L6.31996 63.987L8.16321 64.2503L8.68985 63.7237L9.21649 58.9839L11.3231 55.8241L27.649 43.7113L32.6521 38.9715L37.3919 38.7082L48.4513 34.7584L52.1378 34.2317L65.3039 42.9213L66.8838 44.7646H68.7271L72.9402 39.7615L73.4669 38.4449L72.9402 37.6549L71.097 37.9182L68.7271 40.2881L67.4105 40.8148L56.351 31.0719L52.4012 28.9653L41.3417 30.8086L36.3386 35.0217L35.8119 34.7584L39.2351 30.5452L45.5548 20.0124L46.8714 21.8557L52.6645 25.5421L55.2977 24.7522L62.4074 18.1692L65.8305 13.6927L68.4637 13.4294L75.5734 6.05639L75.8367 4.73978Z" fill="#004E9B"/>
<path d="M117.824 48.588C114.184 48.588 110.992 47.916 108.248 46.572C105.504 45.2 103.362 43.282 101.822 40.818C100.31 38.354 99.554 35.484 99.554 32.208C99.554 28.904 100.31 26.034 101.822 23.598C103.362 21.162 105.532 19.272 108.332 17.928C111.132 16.584 114.45 15.912 118.286 15.912C119.21 15.912 119.98 15.954 120.596 16.038C121.212 16.094 121.786 16.164 122.318 16.248C122.85 16.332 123.452 16.416 124.124 16.5C124.824 16.556 125.692 16.584 126.728 16.584L127.988 24.984H127.568C127.26 23.332 126.644 21.876 125.72 20.616C124.824 19.328 123.69 18.32 122.318 17.592C120.974 16.836 119.476 16.458 117.824 16.458C116.2 16.458 114.702 16.85 113.33 17.634C111.958 18.418 110.782 19.51 109.802 20.91C108.822 22.338 108.052 24.046 107.492 26.034C106.96 27.994 106.694 30.15 106.694 32.502C106.694 35.61 107.17 38.326 108.122 40.65C109.074 42.946 110.418 44.738 112.154 46.026C113.89 47.286 115.934 47.916 118.286 47.916C120.974 47.916 123.186 47.118 124.922 45.522C126.686 43.898 127.778 41.644 128.198 38.76H128.618L127.4 47.832C126.084 47.832 124.922 47.888 123.914 48C122.906 48.14 121.926 48.266 120.974 48.378C120.05 48.518 119 48.588 117.824 48.588ZM128.164 48V47.58C128.696 47.524 129.228 47.272 129.76 46.824C130.32 46.348 130.838 45.76 131.314 45.06C131.79 44.36 132.154 43.674 132.406 43.002L143.494 15.87H143.872L154.792 43.002C156.024 46.054 157.396 47.58 158.908 47.58H159.034V48H145.594V47.58H145.762C147.022 47.58 147.862 47.202 148.282 46.446C148.73 45.662 148.674 44.584 148.114 43.212L145.594 36.954H135.472L133.12 42.792C132.616 43.996 132.672 45.088 133.288 46.068C133.932 47.02 134.954 47.524 136.354 47.58V48H128.164ZM135.682 36.408H145.384L140.596 24.312L135.682 36.408ZM157.596 48V47.58C158.604 47.58 159.416 47.272 160.032 46.656C160.648 46.04 160.956 45.228 160.956 44.22V20.28C160.956 19.272 160.648 18.46 160.032 17.844C159.416 17.228 158.604 16.92 157.596 16.92V16.5H171.624C173.64 16.5 175.39 16.85 176.874 17.55C178.386 18.222 179.548 19.174 180.36 20.406C181.2 21.61 181.62 23.024 181.62 24.648C181.62 26.692 180.99 28.442 179.73 29.898C178.47 31.354 176.762 32.236 174.606 32.544C175.082 32.684 175.642 33.104 176.286 33.804C176.958 34.504 177.602 35.372 178.218 36.408L183.51 45.48C183.902 46.124 184.364 46.642 184.896 47.034C185.456 47.398 186.072 47.58 186.744 47.58V48H178.05C177.658 47.356 177.238 46.656 176.79 45.9C176.37 45.144 175.978 44.444 175.614 43.8L171.498 36.24C170.994 35.316 170.56 34.602 170.196 34.098C169.86 33.566 169.51 33.202 169.146 33.006C168.81 32.81 168.376 32.712 167.844 32.712H167.424V44.22C167.424 45.228 167.732 46.04 168.348 46.656C168.964 47.272 169.776 47.58 170.784 47.58H170.868V48H157.596ZM167.424 32.166H169.566C171.386 32.166 172.828 31.466 173.892 30.066C174.984 28.666 175.53 26.846 175.53 24.606C175.53 22.338 175.012 20.518 173.976 19.146C172.94 17.746 171.568 17.046 169.86 17.046H167.424V32.166ZM196.396 48.63L185.476 21.498C184.272 18.446 182.914 16.92 181.402 16.92H181.276V16.5H194.716V16.92H194.548C193.26 16.92 192.406 17.312 191.986 18.096C191.566 18.852 191.636 19.916 192.196 21.288L199.672 40.188L207.358 21.288C207.862 20.028 207.792 19.006 207.148 18.222C206.532 17.41 205.468 16.976 203.956 16.92V16.5H212.146V16.92C211.614 16.948 211.068 17.2 210.508 17.676C209.976 18.152 209.472 18.74 208.996 19.44C208.548 20.112 208.184 20.798 207.904 21.498L196.816 48.63H196.396ZM210.588 48V47.58H210.63C211.638 47.58 212.45 47.272 213.066 46.656C213.682 46.04 213.99 45.228 213.99 44.22V20.28C213.99 19.272 213.682 18.46 213.066 17.844C212.45 17.228 211.638 16.92 210.63 16.92H210.588V16.5H223.902V16.92H223.86C222.852 16.92 222.04 17.228 221.424 17.844C220.808 18.46 220.5 19.272 220.5 20.28V44.22C220.5 45.228 220.808 46.04 221.424 46.656C222.04 47.272 222.852 47.58 223.86 47.58H223.902V48H210.588ZM241.372 48.588C238.012 48.588 235.058 47.916 232.51 46.572C229.99 45.2 228.016 43.296 226.588 40.86C225.188 38.396 224.488 35.526 224.488 32.25C224.488 28.974 225.188 26.118 226.588 23.682C228.016 21.218 229.99 19.314 232.51 17.97C235.058 16.598 238.012 15.912 241.372 15.912C244.732 15.912 247.672 16.598 250.192 17.97C252.74 19.314 254.714 21.218 256.114 23.682C257.542 26.118 258.256 28.974 258.256 32.25C258.256 35.526 257.542 38.396 256.114 40.86C254.714 43.296 252.74 45.2 250.192 46.572C247.672 47.916 244.732 48.588 241.372 48.588ZM241.372 47.916C242.828 47.916 244.158 47.538 245.362 46.782C246.566 46.026 247.602 44.962 248.47 43.59C249.31 42.218 249.954 40.566 250.402 38.634C250.878 36.702 251.116 34.56 251.116 32.208C251.116 29.856 250.878 27.714 250.402 25.782C249.954 23.822 249.31 22.156 248.47 20.784C247.602 19.412 246.566 18.348 245.362 17.592C244.158 16.836 242.828 16.458 241.372 16.458C239.916 16.458 238.586 16.836 237.382 17.592C236.178 18.348 235.156 19.412 234.316 20.784C233.448 22.156 232.776 23.822 232.3 25.782C231.852 27.714 231.628 29.856 231.628 32.208C231.628 34.56 231.852 36.702 232.3 38.634C232.776 40.566 233.448 42.218 234.316 43.59C235.156 44.962 236.178 46.026 237.382 46.782C238.586 47.538 239.916 47.916 241.372 47.916ZM286.299 48.588L264.291 20.532C264.095 20.28 263.871 20.028 263.619 19.776C263.395 19.524 263.185 19.314 262.989 19.146V43.17C262.989 44.374 263.353 45.41 264.081 46.278C264.809 47.146 265.775 47.58 266.979 47.58V48H258.243V47.58C259.475 47.58 260.455 47.146 261.183 46.278C261.911 45.41 262.275 44.36 262.275 43.128V18.558C261.015 17.606 259.685 17.06 258.285 16.92V16.5H269.079L285.585 37.794V21.33C285.585 20.126 285.221 19.09 284.493 18.222C283.765 17.354 282.799 16.92 281.595 16.92V16.5H290.289V16.92C289.085 16.92 288.119 17.354 287.391 18.222C286.663 19.09 286.299 20.126 286.299 21.33V48.588Z" fill="#004E9B"/>
</svg>
